<svg width="265" height="265" viewBox="0 0 265 265" fill="none" xmlns="http://www.w3.org/2000/svg">
<mask id="mask0_831_221" style="mask-type:alpha" maskUnits="userSpaceOnUse" x="9" y="9" width="247" height="247">
<circle r="122.987" transform="matrix(0.0793339 -0.996848 -0.996848 -0.0793339 132.356 132.356)" fill="white"/>
</mask>
<g mask="url(#mask0_831_221)">
<path d="M276.306 152.098C255.959 151.779 208.181 144.973 179.57 80.28C150.958 15.5872 118.915 -4.92617 106.601 -4.60585" stroke="url(#paint0_linear_831_221)" stroke-opacity="0.8" stroke-width="14"/>
<path d="M187.459 260.032C167.112 259.713 119.265 242.902 90.6539 178.209C62.0425 113.516 30.2623 97.9838 17.9487 98.3041" stroke="url(#paint1_linear_831_221)" stroke-opacity="0.8" stroke-width="14"/>
<path d="M227.137 222.058C205.194 221.714 153.594 203.585 122.738 133.826C91.8819 64.0667 57.6091 47.3174 44.3297 47.6627" stroke="url(#paint2_linear_831_221)" stroke-opacity="0.8" stroke-width="14"/>
<path d="M113.86 331.061C93.5134 330.742 45.6664 313.931 17.055 249.238C-11.5565 184.545 -43.3366 169.013 -55.6503 169.333" stroke="url(#paint3_linear_831_221)" stroke-opacity="0.8" stroke-width="14"/>
<path d="M292.165 135.155C271.598 134.812 223.216 118.026 194.214 53.6269C165.213 -10.7722 133.071 -26.2658 120.626 -25.9628" stroke="url(#paint4_linear_831_221)" stroke-opacity="0.8" stroke-width="14"/>
<path d="M207.884 239.303C186.539 238.967 136.346 221.342 106.328 153.53C76.31 85.717 42.9711 69.4338 30.054 69.7687" stroke="url(#paint5_linear_831_221)" stroke-opacity="0.8" stroke-width="14"/>
<path d="M243.105 201.626C220.859 201.319 168.59 182.521 137.474 109.781C106.359 37.0407 71.6525 19.6402 58.1887 20.0325" stroke="url(#paint6_linear_831_221)" stroke-opacity="0.8" stroke-width="14"/>
<path d="M174.069 323.314C150.533 324.278 94.2805 306.429 57.551 227.317C20.8215 148.205 -16.789 130.881 -31.003 132.107" stroke="url(#paint7_linear_831_221)" stroke-opacity="0.8" stroke-width="14"/>
<path d="M306.37 113.935C286.023 113.616 238.176 96.8044 209.564 32.1117C180.953 -32.5811 149.173 -48.1137 136.859 -47.7933" stroke="url(#paint8_linear_831_221)" stroke-opacity="0.8" stroke-width="14"/>
<path d="M259.998 179.718C238.155 179.374 186.788 161.343 156.067 91.9701C125.346 22.5975 91.2275 5.93884 78.0086 6.28111" stroke="url(#paint9_linear_831_221)" stroke-opacity="0.8" stroke-width="14"/>
<path d="M187.007 284.906C162.216 284.365 103.769 265.393 68.3108 193.831C32.8522 122.269 -6.00913 104.855 -21.0075 105.094" stroke="url(#paint10_linear_831_221)" stroke-opacity="0.8" stroke-width="14"/>
</g>
<defs>
<linearGradient id="paint0_linear_831_221" x1="281.963" y1="81.02" x2="100.933" y2="66.6128" gradientUnits="userSpaceOnUse">
<stop offset="0.00312487" stop-color="#213757" stop-opacity="0"/>
<stop offset="0.0604165" stop-color="#213757" stop-opacity="0"/>
<stop offset="0.753125" stop-color="#213757" stop-opacity="0.2"/>
<stop offset="1" stop-color="#213757"/>
</linearGradient>
<linearGradient id="paint1_linear_831_221" x1="193.321" y1="186.38" x2="12.0871" y2="171.956" gradientUnits="userSpaceOnUse">
<stop offset="0.00312487" stop-color="#213757" stop-opacity="0"/>
<stop offset="0.0604165" stop-color="#213757" stop-opacity="0"/>
<stop offset="0.753125" stop-color="#213757" stop-opacity="0.2"/>
<stop offset="1" stop-color="#213757"/>
</linearGradient>
<linearGradient id="paint2_linear_831_221" x1="233.457" y1="142.638" x2="38.0091" y2="127.083" gradientUnits="userSpaceOnUse">
<stop offset="0.00312487" stop-color="#213757" stop-opacity="0"/>
<stop offset="0.0604165" stop-color="#213757" stop-opacity="0"/>
<stop offset="0.753125" stop-color="#213757" stop-opacity="0.2"/>
<stop offset="1" stop-color="#213757"/>
</linearGradient>
<linearGradient id="paint3_linear_831_221" x1="119.722" y1="257.409" x2="-61.5118" y2="242.985" gradientUnits="userSpaceOnUse">
<stop offset="0.00312487" stop-color="#213757" stop-opacity="0"/>
<stop offset="0.0604165" stop-color="#213757" stop-opacity="0"/>
<stop offset="0.753125" stop-color="#213757" stop-opacity="0.2"/>
<stop offset="1" stop-color="#213757"/>
</linearGradient>
<linearGradient id="paint4_linear_831_221" x1="297.996" y1="61.8862" x2="114.795" y2="47.3062" gradientUnits="userSpaceOnUse">
<stop offset="0.00312487" stop-color="#213757" stop-opacity="0"/>
<stop offset="0.0604165" stop-color="#213757" stop-opacity="0"/>
<stop offset="0.753125" stop-color="#213757" stop-opacity="0.2"/>
<stop offset="1" stop-color="#213757"/>
</linearGradient>
<linearGradient id="paint5_linear_831_221" x1="214.028" y1="162.101" x2="23.9099" y2="146.97" gradientUnits="userSpaceOnUse">
<stop offset="0.00312487" stop-color="#213757" stop-opacity="0"/>
<stop offset="0.0604165" stop-color="#213757" stop-opacity="0"/>
<stop offset="0.753125" stop-color="#213757" stop-opacity="0.2"/>
<stop offset="1" stop-color="#213757"/>
</linearGradient>
<linearGradient id="paint6_linear_831_221" x1="249.704" y1="118.713" x2="51.59" y2="102.946" gradientUnits="userSpaceOnUse">
<stop offset="0.00312487" stop-color="#213757" stop-opacity="0"/>
<stop offset="0.0604165" stop-color="#213757" stop-opacity="0"/>
<stop offset="0.753125" stop-color="#213757" stop-opacity="0.2"/>
<stop offset="1" stop-color="#213757"/>
</linearGradient>
<linearGradient id="paint7_linear_831_221" x1="176.676" y1="230.67" x2="-33.6108" y2="224.751" gradientUnits="userSpaceOnUse">
<stop offset="0.00312487" stop-color="#213757" stop-opacity="0"/>
<stop offset="0.0604165" stop-color="#213757" stop-opacity="0"/>
<stop offset="0.753125" stop-color="#213757" stop-opacity="0.2"/>
<stop offset="1" stop-color="#213757"/>
</linearGradient>
<linearGradient id="paint8_linear_831_221" x1="312.232" y1="40.2823" x2="130.998" y2="25.8589" gradientUnits="userSpaceOnUse">
<stop offset="0.00312487" stop-color="#213757" stop-opacity="0"/>
<stop offset="0.0604165" stop-color="#213757" stop-opacity="0"/>
<stop offset="0.753125" stop-color="#213757" stop-opacity="0.2"/>
<stop offset="1" stop-color="#213757"/>
</linearGradient>
<linearGradient id="paint9_linear_831_221" x1="266.283" y1="100.742" x2="71.7233" y2="85.2576" gradientUnits="userSpaceOnUse">
<stop offset="0.00312487" stop-color="#213757" stop-opacity="0"/>
<stop offset="0.0604165" stop-color="#213757" stop-opacity="0"/>
<stop offset="0.753125" stop-color="#213757" stop-opacity="0.2"/>
<stop offset="1" stop-color="#213757"/>
</linearGradient>
<linearGradient id="paint10_linear_831_221" x1="193.463" y1="203.791" x2="-27.463" y2="186.209" gradientUnits="userSpaceOnUse">
<stop offset="0.00312487" stop-color="#213757" stop-opacity="0"/>
<stop offset="0.0604165" stop-color="#213757" stop-opacity="0"/>
<stop offset="0.753125" stop-color="#213757" stop-opacity="0.2"/>
<stop offset="1" stop-color="#213757"/>
</linearGradient>
</defs>
</svg>
