<svg width="130" height="258" viewBox="0 0 130 258" fill="none" xmlns="http://www.w3.org/2000/svg">
<ellipse cx="57.7818" cy="15.1737" rx="1.93899" ry="1.85045" fill="#B7B4B9"/>
<ellipse cx="57.7818" cy="68.4666" rx="1.93899" ry="1.85045" fill="#B7B4B9"/>
<ellipse cx="57.7818" cy="121.76" rx="1.93899" ry="1.85045" fill="#B7B4B9"/>
<ellipse cx="57.7818" cy="41.8201" rx="1.93899" ry="1.85045" fill="#B7B4B9"/>
<ellipse cx="57.7818" cy="95.113" rx="1.93899" ry="1.85045" fill="#B7B4B9"/>
<ellipse cx="57.7818" cy="1.85045" rx="1.93899" ry="1.85045" fill="#B7B4B9"/>
<ellipse cx="57.7818" cy="55.1434" rx="1.93899" ry="1.85045" fill="#B7B4B9"/>
<ellipse cx="57.7818" cy="108.436" rx="1.93899" ry="1.85045" fill="#B7B4B9"/>
<ellipse cx="57.7818" cy="28.4969" rx="1.93899" ry="1.85045" fill="#B7B4B9"/>
<ellipse cx="57.7818" cy="81.7898" rx="1.93899" ry="1.85045" fill="#B7B4B9"/>
<ellipse cx="1.93899" cy="15.1737" rx="1.93899" ry="1.85045" fill="#B7B4B9"/>
<ellipse cx="1.93899" cy="68.4666" rx="1.93899" ry="1.85045" fill="#B7B4B9"/>
<ellipse cx="1.93899" cy="121.76" rx="1.93899" ry="1.85045" fill="#B7B4B9"/>
<ellipse cx="1.93899" cy="41.8201" rx="1.93899" ry="1.85045" fill="#B7B4B9"/>
<ellipse cx="1.93899" cy="95.113" rx="1.93899" ry="1.85045" fill="#B7B4B9"/>
<ellipse cx="1.93899" cy="1.85045" rx="1.93899" ry="1.85045" fill="#B7B4B9"/>
<ellipse cx="1.93899" cy="55.1434" rx="1.93899" ry="1.85045" fill="#B7B4B9"/>
<ellipse cx="1.93899" cy="108.436" rx="1.93899" ry="1.85045" fill="#B7B4B9"/>
<ellipse cx="1.93899" cy="28.4969" rx="1.93899" ry="1.85045" fill="#B7B4B9"/>
<ellipse cx="1.93899" cy="81.7898" rx="1.93899" ry="1.85045" fill="#B7B4B9"/>
<ellipse cx="85.7032" cy="15.1737" rx="1.93899" ry="1.85045" fill="#B7B4B9"/>
<ellipse cx="85.7032" cy="68.4666" rx="1.93899" ry="1.85045" fill="#B7B4B9"/>
<ellipse cx="85.7032" cy="121.76" rx="1.93899" ry="1.85045" fill="#B7B4B9"/>
<ellipse cx="85.7032" cy="41.8201" rx="1.93899" ry="1.85045" fill="#B7B4B9"/>
<ellipse cx="85.7032" cy="95.113" rx="1.93899" ry="1.85045" fill="#B7B4B9"/>
<ellipse cx="85.7032" cy="1.85045" rx="1.93899" ry="1.85045" fill="#B7B4B9"/>
<ellipse cx="85.7032" cy="55.1434" rx="1.93899" ry="1.85045" fill="#B7B4B9"/>
<ellipse cx="85.7032" cy="108.436" rx="1.93899" ry="1.85045" fill="#B7B4B9"/>
<ellipse cx="85.7032" cy="28.4969" rx="1.93899" ry="1.85045" fill="#B7B4B9"/>
<ellipse cx="85.7032" cy="81.7898" rx="1.93899" ry="1.85045" fill="#B7B4B9"/>
<ellipse cx="113.625" cy="15.1737" rx="1.93899" ry="1.85045" fill="#B7B4B9"/>
<ellipse cx="113.625" cy="68.4666" rx="1.93899" ry="1.85045" fill="#B7B4B9"/>
<ellipse cx="113.625" cy="121.76" rx="1.93899" ry="1.85045" fill="#B7B4B9"/>
<ellipse cx="113.625" cy="41.8201" rx="1.93899" ry="1.85045" fill="#B7B4B9"/>
<ellipse cx="113.625" cy="95.113" rx="1.93899" ry="1.85045" fill="#B7B4B9"/>
<ellipse cx="113.625" cy="1.85045" rx="1.93899" ry="1.85045" fill="#B7B4B9"/>
<ellipse cx="113.625" cy="55.1434" rx="1.93899" ry="1.85045" fill="#B7B4B9"/>
<ellipse cx="113.625" cy="108.436" rx="1.93899" ry="1.85045" fill="#B7B4B9"/>
<ellipse cx="113.625" cy="28.4969" rx="1.93899" ry="1.85045" fill="#B7B4B9"/>
<ellipse cx="113.625" cy="81.7898" rx="1.93899" ry="1.85045" fill="#B7B4B9"/>
<ellipse cx="29.8604" cy="15.1737" rx="1.93899" ry="1.85045" fill="#B7B4B9"/>
<ellipse cx="29.8604" cy="68.4666" rx="1.93899" ry="1.85045" fill="#B7B4B9"/>
<ellipse cx="29.8604" cy="121.76" rx="1.93899" ry="1.85045" fill="#B7B4B9"/>
<ellipse cx="29.8604" cy="41.8201" rx="1.93899" ry="1.85045" fill="#B7B4B9"/>
<ellipse cx="29.8604" cy="95.113" rx="1.93899" ry="1.85045" fill="#B7B4B9"/>
<ellipse cx="29.8604" cy="1.85045" rx="1.93899" ry="1.85045" fill="#B7B4B9"/>
<ellipse cx="29.8604" cy="55.1434" rx="1.93899" ry="1.85045" fill="#B7B4B9"/>
<ellipse cx="29.8604" cy="108.436" rx="1.93899" ry="1.85045" fill="#B7B4B9"/>
<ellipse cx="29.8604" cy="28.4969" rx="1.93899" ry="1.85045" fill="#B7B4B9"/>
<ellipse cx="29.8604" cy="81.7898" rx="1.93899" ry="1.85045" fill="#B7B4B9"/>
<ellipse cx="71.7425" cy="15.1737" rx="1.93899" ry="1.85045" fill="#B7B4B9"/>
<ellipse cx="71.7425" cy="68.4666" rx="1.93899" ry="1.85045" fill="#B7B4B9"/>
<ellipse cx="71.7425" cy="121.76" rx="1.93899" ry="1.85045" fill="#B7B4B9"/>
<ellipse cx="71.7425" cy="41.8201" rx="1.93899" ry="1.85045" fill="#B7B4B9"/>
<ellipse cx="71.7425" cy="95.113" rx="1.93899" ry="1.85045" fill="#B7B4B9"/>
<ellipse cx="71.7425" cy="1.85045" rx="1.93899" ry="1.85045" fill="#B7B4B9"/>
<ellipse cx="71.7425" cy="55.1434" rx="1.93899" ry="1.85045" fill="#B7B4B9"/>
<ellipse cx="71.7425" cy="108.436" rx="1.93899" ry="1.85045" fill="#B7B4B9"/>
<ellipse cx="71.7425" cy="28.4969" rx="1.93899" ry="1.85045" fill="#B7B4B9"/>
<ellipse cx="71.7425" cy="81.7898" rx="1.93899" ry="1.85045" fill="#B7B4B9"/>
<ellipse cx="15.8997" cy="15.1737" rx="1.93899" ry="1.85045" fill="#B7B4B9"/>
<ellipse cx="15.8997" cy="68.4666" rx="1.93899" ry="1.85045" fill="#B7B4B9"/>
<ellipse cx="15.8997" cy="121.76" rx="1.93899" ry="1.85045" fill="#B7B4B9"/>
<ellipse cx="15.8997" cy="41.8201" rx="1.93899" ry="1.85045" fill="#B7B4B9"/>
<ellipse cx="15.8997" cy="95.113" rx="1.93899" ry="1.85045" fill="#B7B4B9"/>
<ellipse cx="15.8997" cy="1.85045" rx="1.93899" ry="1.85045" fill="#B7B4B9"/>
<ellipse cx="15.8997" cy="55.1434" rx="1.93899" ry="1.85045" fill="#B7B4B9"/>
<ellipse cx="15.8997" cy="108.436" rx="1.93899" ry="1.85045" fill="#B7B4B9"/>
<ellipse cx="15.8997" cy="28.4969" rx="1.93899" ry="1.85045" fill="#B7B4B9"/>
<ellipse cx="15.8997" cy="81.7898" rx="1.93899" ry="1.85045" fill="#B7B4B9"/>
<ellipse cx="99.6639" cy="15.1737" rx="1.93899" ry="1.85045" fill="#B7B4B9"/>
<ellipse cx="99.6639" cy="68.4666" rx="1.93899" ry="1.85045" fill="#B7B4B9"/>
<ellipse cx="99.6639" cy="121.76" rx="1.93899" ry="1.85045" fill="#B7B4B9"/>
<ellipse cx="99.6639" cy="41.8201" rx="1.93899" ry="1.85045" fill="#B7B4B9"/>
<ellipse cx="99.6639" cy="95.113" rx="1.93899" ry="1.85045" fill="#B7B4B9"/>
<ellipse cx="99.6639" cy="1.85045" rx="1.93899" ry="1.85045" fill="#B7B4B9"/>
<ellipse cx="99.6639" cy="55.1434" rx="1.93899" ry="1.85045" fill="#B7B4B9"/>
<ellipse cx="99.6639" cy="108.436" rx="1.93899" ry="1.85045" fill="#B7B4B9"/>
<ellipse cx="99.6639" cy="28.4969" rx="1.93899" ry="1.85045" fill="#B7B4B9"/>
<ellipse cx="99.6639" cy="81.7898" rx="1.93899" ry="1.85045" fill="#B7B4B9"/>
<ellipse cx="127.585" cy="15.1737" rx="1.93899" ry="1.85045" fill="#B7B4B9"/>
<ellipse cx="127.585" cy="68.4666" rx="1.93899" ry="1.85045" fill="#B7B4B9"/>
<ellipse cx="127.585" cy="121.76" rx="1.93899" ry="1.85045" fill="#B7B4B9"/>
<ellipse cx="127.585" cy="41.8201" rx="1.93899" ry="1.85045" fill="#B7B4B9"/>
<ellipse cx="127.585" cy="95.113" rx="1.93899" ry="1.85045" fill="#B7B4B9"/>
<ellipse cx="127.585" cy="1.85045" rx="1.93899" ry="1.85045" fill="#B7B4B9"/>
<ellipse cx="127.585" cy="55.1434" rx="1.93899" ry="1.85045" fill="#B7B4B9"/>
<ellipse cx="127.585" cy="108.436" rx="1.93899" ry="1.85045" fill="#B7B4B9"/>
<ellipse cx="127.585" cy="28.4969" rx="1.93899" ry="1.85045" fill="#B7B4B9"/>
<ellipse cx="127.585" cy="81.7898" rx="1.93899" ry="1.85045" fill="#B7B4B9"/>
<ellipse cx="43.8211" cy="15.1737" rx="1.93899" ry="1.85045" fill="#B7B4B9"/>
<ellipse cx="43.8211" cy="68.4666" rx="1.93899" ry="1.85045" fill="#B7B4B9"/>
<ellipse cx="43.8211" cy="121.76" rx="1.93899" ry="1.85045" fill="#B7B4B9"/>
<ellipse cx="43.8211" cy="41.8201" rx="1.93899" ry="1.85045" fill="#B7B4B9"/>
<ellipse cx="43.8211" cy="95.113" rx="1.93899" ry="1.85045" fill="#B7B4B9"/>
<ellipse cx="43.8211" cy="1.85045" rx="1.93899" ry="1.85045" fill="#B7B4B9"/>
<ellipse cx="43.8211" cy="55.1434" rx="1.93899" ry="1.85045" fill="#B7B4B9"/>
<ellipse cx="43.8211" cy="108.436" rx="1.93899" ry="1.85045" fill="#B7B4B9"/>
<ellipse cx="43.8211" cy="28.4969" rx="1.93899" ry="1.85045" fill="#B7B4B9"/>
<ellipse cx="43.8211" cy="81.7898" rx="1.93899" ry="1.85045" fill="#B7B4B9"/>
<ellipse cx="57.817" cy="148.938" rx="1.93899" ry="1.85045" fill="#B7B4B9"/>
<ellipse cx="57.817" cy="202.231" rx="1.93899" ry="1.85045" fill="#B7B4B9"/>
<ellipse cx="57.817" cy="255.524" rx="1.93899" ry="1.85045" fill="#B7B4B9"/>
<ellipse cx="57.817" cy="175.585" rx="1.93899" ry="1.85045" fill="#B7B4B9"/>
<ellipse cx="57.817" cy="228.878" rx="1.93899" ry="1.85045" fill="#B7B4B9"/>
<ellipse cx="57.817" cy="135.615" rx="1.93899" ry="1.85045" fill="#B7B4B9"/>
<ellipse cx="57.817" cy="188.908" rx="1.93899" ry="1.85045" fill="#B7B4B9"/>
<ellipse cx="57.817" cy="242.201" rx="1.93899" ry="1.85045" fill="#B7B4B9"/>
<ellipse cx="57.817" cy="162.262" rx="1.93899" ry="1.85045" fill="#B7B4B9"/>
<ellipse cx="57.817" cy="215.554" rx="1.93899" ry="1.85045" fill="#B7B4B9"/>
<ellipse cx="1.9742" cy="148.938" rx="1.93899" ry="1.85045" fill="#B7B4B9"/>
<ellipse cx="1.9742" cy="202.231" rx="1.93899" ry="1.85045" fill="#B7B4B9"/>
<ellipse cx="1.9742" cy="255.524" rx="1.93899" ry="1.85045" fill="#B7B4B9"/>
<ellipse cx="1.9742" cy="175.585" rx="1.93899" ry="1.85045" fill="#B7B4B9"/>
<ellipse cx="1.9742" cy="228.878" rx="1.93899" ry="1.85045" fill="#B7B4B9"/>
<ellipse cx="1.9742" cy="135.615" rx="1.93899" ry="1.85045" fill="#B7B4B9"/>
<ellipse cx="1.9742" cy="188.908" rx="1.93899" ry="1.85045" fill="#B7B4B9"/>
<ellipse cx="1.9742" cy="242.201" rx="1.93899" ry="1.85045" fill="#B7B4B9"/>
<ellipse cx="1.9742" cy="162.262" rx="1.93899" ry="1.85045" fill="#B7B4B9"/>
<ellipse cx="1.9742" cy="215.554" rx="1.93899" ry="1.85045" fill="#B7B4B9"/>
<ellipse cx="85.7384" cy="148.938" rx="1.93899" ry="1.85045" fill="#B7B4B9"/>
<ellipse cx="85.7384" cy="202.231" rx="1.93899" ry="1.85045" fill="#B7B4B9"/>
<ellipse cx="85.7384" cy="255.524" rx="1.93899" ry="1.85045" fill="#B7B4B9"/>
<ellipse cx="85.7384" cy="175.585" rx="1.93899" ry="1.85045" fill="#B7B4B9"/>
<ellipse cx="85.7384" cy="228.878" rx="1.93899" ry="1.85045" fill="#B7B4B9"/>
<ellipse cx="85.7384" cy="135.615" rx="1.93899" ry="1.85045" fill="#B7B4B9"/>
<ellipse cx="85.7384" cy="188.908" rx="1.93899" ry="1.85045" fill="#B7B4B9"/>
<ellipse cx="85.7384" cy="242.201" rx="1.93899" ry="1.85045" fill="#B7B4B9"/>
<ellipse cx="85.7384" cy="162.262" rx="1.93899" ry="1.85045" fill="#B7B4B9"/>
<ellipse cx="85.7384" cy="215.554" rx="1.93899" ry="1.85045" fill="#B7B4B9"/>
<ellipse cx="113.66" cy="148.938" rx="1.93899" ry="1.85045" fill="#B7B4B9"/>
<ellipse cx="113.66" cy="202.231" rx="1.93899" ry="1.85045" fill="#B7B4B9"/>
<ellipse cx="113.66" cy="255.524" rx="1.93899" ry="1.85045" fill="#B7B4B9"/>
<ellipse cx="113.66" cy="175.585" rx="1.93899" ry="1.85045" fill="#B7B4B9"/>
<ellipse cx="113.66" cy="228.878" rx="1.93899" ry="1.85045" fill="#B7B4B9"/>
<ellipse cx="113.66" cy="135.615" rx="1.93899" ry="1.85045" fill="#B7B4B9"/>
<ellipse cx="113.66" cy="188.908" rx="1.93899" ry="1.85045" fill="#B7B4B9"/>
<ellipse cx="113.66" cy="242.201" rx="1.93899" ry="1.85045" fill="#B7B4B9"/>
<ellipse cx="113.66" cy="162.262" rx="1.93899" ry="1.85045" fill="#B7B4B9"/>
<ellipse cx="113.66" cy="215.554" rx="1.93899" ry="1.85045" fill="#B7B4B9"/>
<ellipse cx="29.8956" cy="148.938" rx="1.93899" ry="1.85045" fill="#B7B4B9"/>
<ellipse cx="29.8956" cy="202.231" rx="1.93899" ry="1.85045" fill="#B7B4B9"/>
<ellipse cx="29.8956" cy="255.524" rx="1.93899" ry="1.85045" fill="#B7B4B9"/>
<ellipse cx="29.8956" cy="175.585" rx="1.93899" ry="1.85045" fill="#B7B4B9"/>
<ellipse cx="29.8956" cy="228.878" rx="1.93899" ry="1.85045" fill="#B7B4B9"/>
<ellipse cx="29.8956" cy="135.615" rx="1.93899" ry="1.85045" fill="#B7B4B9"/>
<ellipse cx="29.8956" cy="188.908" rx="1.93899" ry="1.85045" fill="#B7B4B9"/>
<ellipse cx="29.8956" cy="242.201" rx="1.93899" ry="1.85045" fill="#B7B4B9"/>
<ellipse cx="29.8956" cy="162.262" rx="1.93899" ry="1.85045" fill="#B7B4B9"/>
<ellipse cx="29.8956" cy="215.554" rx="1.93899" ry="1.85045" fill="#B7B4B9"/>
<ellipse cx="71.7777" cy="148.938" rx="1.93899" ry="1.85045" fill="#B7B4B9"/>
<ellipse cx="71.7777" cy="202.231" rx="1.93899" ry="1.85045" fill="#B7B4B9"/>
<ellipse cx="71.7777" cy="255.524" rx="1.93899" ry="1.85045" fill="#B7B4B9"/>
<ellipse cx="71.7777" cy="175.585" rx="1.93899" ry="1.85045" fill="#B7B4B9"/>
<ellipse cx="71.7777" cy="228.878" rx="1.93899" ry="1.85045" fill="#B7B4B9"/>
<ellipse cx="71.7777" cy="135.615" rx="1.93899" ry="1.85045" fill="#B7B4B9"/>
<ellipse cx="71.7777" cy="188.908" rx="1.93899" ry="1.85045" fill="#B7B4B9"/>
<ellipse cx="71.7777" cy="242.201" rx="1.93899" ry="1.85045" fill="#B7B4B9"/>
<ellipse cx="71.7777" cy="162.262" rx="1.93899" ry="1.85045" fill="#B7B4B9"/>
<ellipse cx="71.7777" cy="215.554" rx="1.93899" ry="1.85045" fill="#B7B4B9"/>
<ellipse cx="15.9349" cy="148.938" rx="1.93899" ry="1.85045" fill="#B7B4B9"/>
<ellipse cx="15.9349" cy="202.231" rx="1.93899" ry="1.85045" fill="#B7B4B9"/>
<ellipse cx="15.9349" cy="255.524" rx="1.93899" ry="1.85045" fill="#B7B4B9"/>
<ellipse cx="15.9349" cy="175.585" rx="1.93899" ry="1.85045" fill="#B7B4B9"/>
<ellipse cx="15.9349" cy="228.878" rx="1.93899" ry="1.85045" fill="#B7B4B9"/>
<ellipse cx="15.9349" cy="135.615" rx="1.93899" ry="1.85045" fill="#B7B4B9"/>
<ellipse cx="15.9349" cy="188.908" rx="1.93899" ry="1.85045" fill="#B7B4B9"/>
<ellipse cx="15.9349" cy="242.201" rx="1.93899" ry="1.85045" fill="#B7B4B9"/>
<ellipse cx="15.9349" cy="162.262" rx="1.93899" ry="1.85045" fill="#B7B4B9"/>
<ellipse cx="15.9349" cy="215.554" rx="1.93899" ry="1.85045" fill="#B7B4B9"/>
<ellipse cx="99.6991" cy="148.938" rx="1.93899" ry="1.85045" fill="#B7B4B9"/>
<ellipse cx="99.6991" cy="202.231" rx="1.93899" ry="1.85045" fill="#B7B4B9"/>
<ellipse cx="99.6991" cy="255.524" rx="1.93899" ry="1.85045" fill="#B7B4B9"/>
<ellipse cx="99.6991" cy="175.585" rx="1.93899" ry="1.85045" fill="#B7B4B9"/>
<ellipse cx="99.6991" cy="228.878" rx="1.93899" ry="1.85045" fill="#B7B4B9"/>
<ellipse cx="99.6991" cy="135.615" rx="1.93899" ry="1.85045" fill="#B7B4B9"/>
<ellipse cx="99.6991" cy="188.908" rx="1.93899" ry="1.85045" fill="#B7B4B9"/>
<ellipse cx="99.6991" cy="242.201" rx="1.93899" ry="1.85045" fill="#B7B4B9"/>
<ellipse cx="99.6991" cy="162.262" rx="1.93899" ry="1.85045" fill="#B7B4B9"/>
<ellipse cx="99.6991" cy="215.554" rx="1.93899" ry="1.85045" fill="#B7B4B9"/>
<ellipse cx="127.621" cy="148.938" rx="1.93899" ry="1.85045" fill="#B7B4B9"/>
<ellipse cx="127.621" cy="202.231" rx="1.93899" ry="1.85045" fill="#B7B4B9"/>
<ellipse cx="127.621" cy="255.524" rx="1.93899" ry="1.85045" fill="#B7B4B9"/>
<ellipse cx="127.621" cy="175.585" rx="1.93899" ry="1.85045" fill="#B7B4B9"/>
<ellipse cx="127.621" cy="228.878" rx="1.93899" ry="1.85045" fill="#B7B4B9"/>
<ellipse cx="127.621" cy="135.615" rx="1.93899" ry="1.85045" fill="#B7B4B9"/>
<ellipse cx="127.621" cy="188.908" rx="1.93899" ry="1.85045" fill="#B7B4B9"/>
<ellipse cx="127.621" cy="242.201" rx="1.93899" ry="1.85045" fill="#B7B4B9"/>
<ellipse cx="127.621" cy="162.262" rx="1.93899" ry="1.85045" fill="#B7B4B9"/>
<ellipse cx="127.621" cy="215.554" rx="1.93899" ry="1.85045" fill="#B7B4B9"/>
<ellipse cx="43.8563" cy="148.938" rx="1.93899" ry="1.85045" fill="#B7B4B9"/>
<ellipse cx="43.8563" cy="202.231" rx="1.93899" ry="1.85045" fill="#B7B4B9"/>
<ellipse cx="43.8563" cy="255.524" rx="1.93899" ry="1.85045" fill="#B7B4B9"/>
<ellipse cx="43.8563" cy="175.585" rx="1.93899" ry="1.85045" fill="#B7B4B9"/>
<ellipse cx="43.8563" cy="228.878" rx="1.93899" ry="1.85045" fill="#B7B4B9"/>
<ellipse cx="43.8563" cy="135.615" rx="1.93899" ry="1.85045" fill="#B7B4B9"/>
<ellipse cx="43.8563" cy="188.908" rx="1.93899" ry="1.85045" fill="#B7B4B9"/>
<ellipse cx="43.8563" cy="242.201" rx="1.93899" ry="1.85045" fill="#B7B4B9"/>
<ellipse cx="43.8563" cy="162.262" rx="1.93899" ry="1.85045" fill="#B7B4B9"/>
<ellipse cx="43.8563" cy="215.554" rx="1.93899" ry="1.85045" fill="#B7B4B9"/>
</svg>
