<svg width="29" height="15" viewBox="0 0 29 15" fill="none" xmlns="http://www.w3.org/2000/svg">
<path d="M0.150234 14V13.8L0.650234 13.62C0.916901 13.5133 1.12357 13.3867 1.27023 13.24C1.4169 13.08 1.5369 12.86 1.63023 12.58L5.75023 0.759999H7.45023L11.5102 12.66C11.6169 12.9533 11.7369 13.18 11.8702 13.34C12.0036 13.4867 12.2102 13.6133 12.4902 13.72L12.7302 13.8V14H7.65023V13.8L7.95024 13.7C8.23023 13.5933 8.3969 13.4467 8.45023 13.26C8.5169 13.06 8.51023 12.8267 8.43023 12.56L7.49023 9.68H3.05023L2.09023 12.5C1.9969 12.7933 1.96357 13.0267 1.99023 13.2C2.03023 13.3733 2.19023 13.5133 2.47023 13.62L2.91023 13.8V14H0.150234ZM3.19023 9.28H7.37023L5.35023 3.06L3.19023 9.28ZM13.3599 14V13.8L13.8199 13.62C14.0466 13.5267 14.1999 13.4067 14.2799 13.26C14.3733 13.1 14.4199 12.8867 14.4199 12.62V2.18C14.4199 1.91333 14.3799 1.70667 14.2999 1.56C14.2333 1.4 14.0733 1.27333 13.8199 1.18L13.3599 0.999999V0.799999H22.9399L23.0599 3.88H22.8599L21.9999 2C21.8799 1.76 21.7533 1.56667 21.6199 1.42C21.4866 1.27333 21.2866 1.2 21.0199 1.2H17.4199V6.98H19.5599C19.8266 6.98 20.0266 6.91333 20.1599 6.78C20.3066 6.63333 20.4333 6.44 20.5399 6.2L20.9399 5.4H21.1399V9H20.9399L20.5399 8.16C20.4199 7.92 20.2933 7.73333 20.1599 7.6C20.0266 7.45333 19.8266 7.38 19.5599 7.38H17.4199V13.6H21.4599C21.7266 13.6 21.9333 13.5333 22.0799 13.4C22.2266 13.2533 22.3466 13.0533 22.4399 12.8L23.2599 10.92H23.4599L23.3399 14H13.3599ZM27.0137 14.3C26.5337 14.3 26.127 14.1333 25.7937 13.8C25.4603 13.4667 25.2937 13.0667 25.2937 12.6C25.2937 12.1333 25.4603 11.7267 25.7937 11.38C26.127 11.0333 26.5337 10.86 27.0137 10.86C27.4937 10.86 27.9003 11.0333 28.2337 11.38C28.567 11.7267 28.7337 12.1333 28.7337 12.6C28.7337 13.0667 28.567 13.4667 28.2337 13.8C27.9003 14.1333 27.4937 14.3 27.0137 14.3Z" fill="#FCFDFF"/>
</svg>
