<svg width="181" height="116" viewBox="0 0 181 116" fill="none" xmlns="http://www.w3.org/2000/svg">
<g opacity="0.4">
<path d="M156.39 15.3663C149.872 15.3663 146.552 12.3279 143.623 9.64717C140.979 7.22627 138.889 5.31403 134.425 5.31403C129.961 5.31403 127.871 7.22627 125.226 9.64717C122.298 12.3279 118.978 15.3663 112.46 15.3663C105.942 15.3663 102.623 12.3279 99.6934 9.64717C97.0488 7.22627 94.96 5.31403 90.4956 5.31403C86.0317 5.31403 83.9428 7.22627 81.2982 9.64717C78.3695 12.3279 75.0497 15.3663 68.5317 15.3663C62.0146 15.3663 58.6958 12.3279 55.7671 9.64717C53.1229 7.22627 51.0341 5.31403 46.5706 5.31403C42.1066 5.31403 40.0178 7.22627 37.3731 9.64717C34.4445 12.3279 31.1247 15.3663 24.6071 15.3663C18.0892 15.3663 14.7694 12.3279 11.8403 9.64717C9.19564 7.22627 7.1068 5.31403 2.64243 5.31403C1.18337 5.31403 0 4.1311 0 2.6716C0 1.21254 1.18337 0.0291748 2.64243 0.0291748C9.15997 0.0291748 12.4797 3.06753 15.4089 5.74827C18.0535 8.16917 20.1428 10.0814 24.6071 10.0814C29.0711 10.0814 31.1599 8.16917 33.8046 5.74871C36.7332 3.06753 40.053 0.0291748 46.5706 0.0291748C53.0877 0.0291748 56.407 3.06797 59.3357 5.74871C61.9799 8.16961 64.0683 10.0814 68.5317 10.0814C72.9961 10.0814 75.085 8.16917 77.7296 5.74871C80.6583 3.06753 83.9781 0.0291748 90.4956 0.0291748C97.0136 0.0291748 100.333 3.06753 103.262 5.74871C105.907 8.16917 107.996 10.0814 112.46 10.0814C116.925 10.0814 119.014 8.16917 121.658 5.74871C124.587 3.06753 127.907 0.0291748 134.425 0.0291748C140.943 0.0291748 144.263 3.06753 147.192 5.74871C149.837 8.16917 151.925 10.0814 156.39 10.0814C160.855 10.0814 162.944 8.16917 165.59 5.74827C168.519 3.06753 171.839 0.0291748 178.358 0.0291748C179.817 0.0291748 181 1.21254 181 2.6716C181 4.1311 179.817 5.31403 178.358 5.31403C173.892 5.31403 171.803 7.22627 169.158 9.64717C166.228 12.3279 162.909 15.3663 156.39 15.3663Z" fill="#213757" fill-opacity="0.15"/>
<path d="M156.39 35.4047C149.872 35.4047 146.552 32.3664 143.623 29.6856C140.979 27.2647 138.889 25.3525 134.425 25.3525C129.961 25.3525 127.871 27.2647 125.226 29.6856C122.298 32.3664 118.978 35.4047 112.46 35.4047C105.942 35.4047 102.623 32.3664 99.6934 29.6856C97.0488 27.2647 94.96 25.3525 90.4956 25.3525C86.0317 25.3525 83.9428 27.2647 81.2982 29.6856C78.3695 32.3664 75.0497 35.4047 68.5317 35.4047C62.0146 35.4047 58.6958 32.3664 55.7671 29.6856C53.1229 27.2647 51.0341 25.3525 46.5706 25.3525C42.1066 25.3525 40.0178 27.2647 37.3731 29.6856C34.4445 32.3664 31.1247 35.4047 24.6071 35.4047C18.0892 35.4047 14.7694 32.3664 11.8403 29.6856C9.19564 27.2647 7.1068 25.3525 2.64243 25.3525C1.18337 25.3525 0 24.1696 0 22.7101C0 21.251 1.18337 20.0676 2.64243 20.0676C9.15997 20.0676 12.4797 23.106 15.4089 25.7867C18.0535 28.2076 20.1428 30.1199 24.6071 30.1199C29.0711 30.1199 31.1599 28.2076 33.8046 25.7872C36.7332 23.106 40.053 20.0676 46.5706 20.0676C53.0877 20.0676 56.407 23.1064 59.3357 25.7872C61.9799 28.2081 64.0683 30.1199 68.5317 30.1199C72.9961 30.1199 75.085 28.2076 77.7296 25.7872C80.6583 23.106 83.9781 20.0676 90.4956 20.0676C97.0136 20.0676 100.333 23.106 103.262 25.7872C105.907 28.2076 107.996 30.1199 112.46 30.1199C116.925 30.1199 119.014 28.2076 121.658 25.7872C124.587 23.106 127.907 20.0676 134.425 20.0676C140.943 20.0676 144.263 23.106 147.192 25.7872C149.837 28.2076 151.925 30.1199 156.39 30.1199C160.855 30.1199 162.944 28.2076 165.59 25.7867C168.519 23.106 171.839 20.0676 178.358 20.0676C179.817 20.0676 181 21.251 181 22.7101C181 24.1696 179.817 25.3525 178.358 25.3525C173.892 25.3525 171.803 27.2647 169.158 29.6856C166.228 32.3664 162.909 35.4047 156.39 35.4047Z" fill="#213757" fill-opacity="0.15"/>
<path d="M156.39 55.4431C149.872 55.4431 146.552 52.4047 143.623 49.724C140.979 47.3031 138.889 45.3909 134.425 45.3909C129.961 45.3909 127.871 47.3031 125.226 49.7236C122.298 52.4047 118.978 55.4431 112.46 55.4431C105.942 55.4431 102.623 52.4047 99.6934 49.7236C97.0488 47.3031 94.96 45.3909 90.4956 45.3909C86.0317 45.3909 83.9428 47.3031 81.2982 49.7236C78.3695 52.4047 75.0497 55.4431 68.5317 55.4431C62.0146 55.4431 58.6958 52.4047 55.7671 49.7236C53.1229 47.3031 51.0341 45.3909 46.5706 45.3909C42.1066 45.3909 40.0178 47.3031 37.3731 49.7236C34.4445 52.4047 31.1247 55.4431 24.6071 55.4431C18.0892 55.4431 14.7694 52.4047 11.8403 49.7236C9.19564 47.3031 7.10636 45.3909 2.64243 45.3909C1.18337 45.3909 0 44.2075 0 42.7484C0 41.2889 1.18337 40.106 2.64243 40.106C9.15997 40.106 12.4797 43.1444 15.4089 45.8251C18.0535 48.246 20.1428 50.1582 24.6071 50.1582C29.0711 50.1582 31.1599 48.246 33.8046 45.8251C36.7332 43.1444 40.053 40.106 46.5706 40.106C53.0877 40.106 56.407 43.1444 59.3357 45.8255C61.9799 48.246 64.0683 50.1582 68.5317 50.1582C72.9961 50.1582 75.085 48.246 77.7296 45.8251C80.6583 43.1444 83.9781 40.106 90.4956 40.106C97.0136 40.106 100.333 43.1444 103.262 45.8251C105.907 48.246 107.996 50.1582 112.46 50.1582C116.925 50.1582 119.014 48.246 121.658 45.8251C124.587 43.1444 127.907 40.106 134.425 40.106C140.943 40.106 144.263 43.1444 147.192 45.8251C149.837 48.246 151.925 50.1582 156.39 50.1582C160.855 50.1582 162.944 48.246 165.59 45.8251C168.519 43.1444 171.839 40.106 178.358 40.106C179.817 40.106 181 41.2889 181 42.7484C181 44.2075 179.817 45.3909 178.358 45.3909C173.892 45.3909 171.803 47.3031 169.158 49.724C166.228 52.4047 162.909 55.4431 156.39 55.4431Z" fill="#213757" fill-opacity="0.15"/>
<path d="M156.39 115.337C149.872 115.337 146.552 112.299 143.623 109.618C140.979 107.197 138.889 105.285 134.425 105.285C129.961 105.285 127.871 107.197 125.226 109.618C122.298 112.299 118.978 115.337 112.46 115.337C105.942 115.337 102.623 112.299 99.6934 109.618C97.0488 107.197 94.96 105.285 90.4956 105.285C86.0317 105.285 83.9428 107.197 81.2982 109.618C78.3695 112.299 75.0497 115.337 68.5317 115.337C62.0146 115.337 58.6958 112.299 55.7671 109.618C53.1229 107.197 51.0341 105.285 46.5706 105.285C42.1066 105.285 40.0178 107.197 37.3731 109.618C34.4445 112.299 31.1247 115.337 24.6071 115.337C18.0892 115.337 14.7694 112.299 11.8403 109.618C9.19564 107.197 7.10636 105.285 2.64243 105.285C1.18337 105.285 0 104.101 0 102.642C0 101.183 1.18337 100 2.64243 100C9.15997 100 12.4797 103.038 15.4089 105.719C18.0535 108.14 20.1428 110.052 24.6071 110.052C29.0711 110.052 31.1599 108.14 33.8046 105.719C36.7332 103.038 40.053 100 46.5706 100C53.0877 100 56.407 103.038 59.3357 105.72C61.9799 108.14 64.0683 110.052 68.5317 110.052C72.9961 110.052 75.085 108.14 77.7296 105.719C80.6583 103.038 83.9781 100 90.4956 100C97.0136 100 100.333 103.038 103.262 105.719C105.907 108.14 107.996 110.052 112.46 110.052C116.925 110.052 119.014 108.14 121.658 105.719C124.587 103.038 127.907 100 134.425 100C140.943 100 144.263 103.038 147.192 105.719C149.837 108.14 151.925 110.052 156.39 110.052C160.855 110.052 162.944 108.14 165.59 105.719C168.519 103.038 171.839 100 178.358 100C179.817 100 181 101.183 181 102.642C181 104.101 179.817 105.285 178.358 105.285C173.892 105.285 171.803 107.197 169.158 109.618C166.228 112.299 162.909 115.337 156.39 115.337Z" fill="#213757" fill-opacity="0.15"/>
<path d="M156.39 75.4815C149.872 75.4815 146.552 72.4431 143.623 69.7624C140.979 67.3415 138.889 65.4292 134.425 65.4292C129.961 65.4292 127.871 67.3415 125.226 69.7619C122.298 72.4431 118.978 75.4815 112.46 75.4815C105.942 75.4815 102.623 72.4431 99.6934 69.7619C97.0488 67.3415 94.96 65.4292 90.4956 65.4292C86.0317 65.4292 83.9428 67.3415 81.2982 69.7619C78.3695 72.4431 75.0497 75.4815 68.5317 75.4815C62.0146 75.4815 58.6958 72.4431 55.7671 69.7619C53.1229 67.3415 51.0341 65.4292 46.5706 65.4292C42.1066 65.4292 40.0178 67.3415 37.3731 69.7619C34.4445 72.4431 31.1247 75.4815 24.6071 75.4815C18.0892 75.4815 14.7694 72.4431 11.8403 69.7619C9.19564 67.3415 7.10636 65.4292 2.64243 65.4292C1.18337 65.4292 0 64.2458 0 62.7868C0 61.3273 1.18337 60.1443 2.64243 60.1443C9.15997 60.1443 12.4797 63.1827 15.4089 65.8634C18.0535 68.2844 20.1428 70.1966 24.6071 70.1966C29.0711 70.1966 31.1599 68.2844 33.8046 65.8634C36.7332 63.1827 40.053 60.1443 46.5706 60.1443C53.0877 60.1443 56.407 63.1827 59.3357 65.8639C61.9799 68.2844 64.0683 70.1966 68.5317 70.1966C72.9961 70.1966 75.085 68.2844 77.7296 65.8634C80.6583 63.1827 83.9781 60.1443 90.4956 60.1443C97.0136 60.1443 100.333 63.1827 103.262 65.8634C105.907 68.2844 107.996 70.1966 112.46 70.1966C116.925 70.1966 119.014 68.2844 121.658 65.8634C124.587 63.1827 127.907 60.1443 134.425 60.1443C140.943 60.1443 144.263 63.1827 147.192 65.8634C149.837 68.2844 151.925 70.1966 156.39 70.1966C160.855 70.1966 162.944 68.2844 165.59 65.8634C168.519 63.1827 171.839 60.1443 178.358 60.1443C179.817 60.1443 181 61.3273 181 62.7868C181 64.2458 179.817 65.4292 178.358 65.4292C173.892 65.4292 171.803 67.3415 169.158 69.7624C166.228 72.4431 162.909 75.4815 156.39 75.4815Z" fill="#213757" fill-opacity="0.15"/>
<path d="M156.39 95.5198C149.872 95.5198 146.552 92.4815 143.623 89.8007C140.979 87.3798 138.889 85.4676 134.425 85.4676C129.961 85.4676 127.871 87.3798 125.226 89.8003C122.298 92.4815 118.978 95.5198 112.46 95.5198C105.942 95.5198 102.623 92.4815 99.6934 89.8003C97.0488 87.3798 94.96 85.4676 90.4956 85.4676C86.0317 85.4676 83.9428 87.3798 81.2982 89.8003C78.3695 92.4815 75.0497 95.5198 68.5317 95.5198C62.0146 95.5198 58.6958 92.4815 55.7671 89.8003C53.1229 87.3798 51.0341 85.4676 46.5706 85.4676C42.1066 85.4676 40.0178 87.3798 37.3731 89.8003C34.4445 92.4815 31.1247 95.5198 24.6071 95.5198C18.0892 95.5198 14.7694 92.4815 11.8403 89.8003C9.19564 87.3798 7.10636 85.4676 2.64243 85.4676C1.18337 85.4676 0 84.2842 0 82.8252C0 81.3652 1.18337 80.1827 2.64243 80.1827C9.15997 80.1827 12.4797 83.2211 15.4089 85.9018C18.0535 88.3227 20.1428 90.235 24.6071 90.235C29.0711 90.235 31.1599 88.3227 33.8046 85.9018C36.7332 83.2211 40.053 80.1827 46.5706 80.1827C53.0877 80.1827 56.407 83.2211 59.3357 85.9023C61.9799 88.3227 64.0683 90.235 68.5317 90.235C72.9961 90.235 75.085 88.3227 77.7296 85.9018C80.6583 83.2211 83.9781 80.1827 90.4956 80.1827C97.0136 80.1827 100.333 83.2211 103.262 85.9018C105.907 88.3227 107.996 90.235 112.46 90.235C116.925 90.235 119.014 88.3227 121.658 85.9018C124.587 83.2211 127.907 80.1827 134.425 80.1827C140.943 80.1827 144.263 83.2211 147.192 85.9018C149.837 88.3227 151.925 90.235 156.39 90.235C160.855 90.235 162.944 88.3227 165.59 85.9018C168.519 83.2211 171.839 80.1827 178.358 80.1827C179.817 80.1827 181 81.3652 181 82.8252C181 84.2842 179.817 85.4676 178.358 85.4676C173.892 85.4676 171.803 87.3798 169.158 89.8007C166.228 92.4815 162.909 95.5198 156.39 95.5198Z" fill="#213757" fill-opacity="0.15"/>
</g>
</svg>
