<svg width="21" height="21" viewBox="0 0 21 21" fill="none" xmlns="http://www.w3.org/2000/svg">
<path d="M5.71713 2.61264L5.62905 2.76781L5.63231 2.77102L5.63949 2.77326L5.66536 2.78135L5.67036 2.78291L5.67043 2.78293L5.67181 2.78336L5.74272 2.80552L5.72581 2.86301L5.7879 2.66537C5.7862 2.66368 5.78421 2.66228 5.78221 2.66088C5.78072 2.65983 5.77922 2.65879 5.77785 2.65761C5.7653 2.6462 5.75183 2.63593 5.73744 2.62634C5.73499 2.6247 5.7326 2.62301 5.73021 2.62132C5.72593 2.61829 5.72167 2.61528 5.71713 2.61264ZM5.71713 2.61264L5.62776 2.76654M5.71713 2.61264C5.70023 2.60305 5.6822 2.59552 5.66348 2.58867M5.62776 2.76654L0.0551315 1.39746C0.0170075 1.27601 0.0496526 1.14338 0.139826 1.05321C0.23 0.96326 0.363092 0.930844 0.484084 0.968511L5.64978 2.58251C5.65218 2.5833 5.6544 2.58445 5.65663 2.58559C5.65886 2.58673 5.66108 2.58787 5.66348 2.58867M5.62776 2.76654L5.61001 2.74908L5.66348 2.58867M5.62776 2.76654L5.60617 2.7453L5.66348 2.58867M0.230986 16.2733V16.2733ZM13.5118 6.54346C13.5118 6.54343 13.5118 6.54339 13.5117 6.54335L13.5118 6.54346ZM15.424 4.63155C15.424 4.63152 15.4239 4.63148 15.4239 4.63144L15.424 4.63155ZM15.6467 4.40865L15.6463 4.40832L15.6467 4.40865ZM13.8654 6.67411C13.9992 6.54056 13.9992 6.32346 13.8654 6.18991V6.67411Z" fill="#FCFDFF" stroke="#0D0D0D"/>
</svg>
