<svg width="23" height="23" viewBox="0 0 23 23" fill="none" xmlns="http://www.w3.org/2000/svg">
<path d="M1.52656 2.43992C1.43639 2.5301 1.40374 2.66273 1.44187 2.78418L3.05609 7.94965M1.52656 2.43992L1.52869 2.44206L1.52868 2.44206L1.61829 2.7288L1.61836 2.72903L1.8134 3.35314L3.13222 7.57327L3.18478 7.74146L3.08141 7.77185L3.2123 7.90062L3.05609 7.94965M1.52656 2.43992L1.5287 2.44206L1.81567 2.53174L1.87081 2.35524L1.81585 2.53179L7.04336 3.97231C7.04114 3.97117 7.03891 3.97002 7.03652 3.96922L1.87082 2.35523C1.74983 2.31756 1.61673 2.34998 1.52656 2.43992ZM3.05609 7.94965L3.21247 7.90078M3.05609 7.94965C3.06591 7.98093 3.08097 8.00969 3.09901 8.03663C3.10283 8.04244 3.10716 8.04753 3.11153 8.05266C3.11368 8.05519 3.11584 8.05773 3.11795 8.06037C3.1209 8.06403 3.12364 8.0678 3.12638 8.07155C3.1315 8.07857 3.13659 8.08555 3.14284 8.09165L6.59654 11.4897L6.5994 11.4868L6.95296 11.8404L6.60229 12.1968L6.5994 12.1939L1.48707 17.3065C1.35329 17.4403 1.35329 17.6569 1.48707 17.7907L5.03831 21.3422C5.10246 21.4063 5.18967 21.4424 5.28053 21.4424C5.37138 21.4424 5.45836 21.4063 5.52274 21.3422M3.21247 7.90078L15.4133 12.1585L15.42 12.1518L19.5408 16.118M3.21247 7.90078L3.24438 7.93219M3.21247 7.90078L3.24438 7.93219M5.52274 21.3422L11.045 15.8199L15.5131 20.1621M5.52274 21.3422L5.39185 21.2113L5.28053 21.3226L5.28027 21.3228L5.16895 21.2115L4.92673 20.9693L1.85968 17.902L1.61772 17.66L1.50616 17.5485L1.6176 17.437L1.8597 17.1949L3.14998 15.9046L3.50353 15.5511L3.50365 15.5512L3.63441 15.4204L4.8909 14.1639L5.24446 13.8104L5.24457 13.8105L5.37533 13.6797L7.08384 11.9712L7.08954 11.9655L7.2157 11.8394L7.08269 11.7085L3.68752 8.36817L3.33868 8.02496L3.27887 8.04256L3.25772 7.97488L3.25751 7.97418L3.25114 7.95382L3.11797 8.06036L3.251 7.95336M5.52274 21.3422L5.39209 21.211L5.63384 20.9693L10.9075 15.6961L10.9144 15.6892L11.0433 15.5604L11.1739 15.6873L15.3995 19.7941L15.6413 20.0291L15.5131 20.1621M15.5131 20.1621C15.5701 20.2172 15.6418 20.2439 15.7151 20.2519C16.2333 20.7324 16.9017 20.9984 17.6126 20.9984C18.3596 20.9984 19.062 20.7075 19.5901 20.1793C20.666 19.1033 20.6781 17.3626 19.6305 16.2691C19.6138 16.2123 19.5841 16.1598 19.5408 16.118M15.5131 20.1621L15.6419 20.0296L15.73 20.1153L15.753 20.1376L15.797 20.0936L15.8343 20.1233L15.9867 20.2446C16.4609 20.6222 17.0367 20.8114 17.6126 20.8116C18.2808 20.8118 18.9491 20.5577 19.4586 20.0485L19.4587 20.0484C19.4588 20.0484 19.4589 20.0483 19.4589 20.0482C19.4589 20.0482 19.459 20.0482 19.459 20.0482C20.4073 19.0998 20.4708 17.6006 19.6552 16.5762L19.5059 16.3885L19.5043 16.3865L19.5285 16.3623L19.4781 16.3138L19.4128 16.251M19.5408 16.118L19.4128 16.251M19.5408 16.118L19.4127 16.2509L19.3425 16.1833L19.3065 16.1381L19.3011 16.1435L19.1613 16.0089L14.932 11.9377L14.7962 11.807L14.9222 11.6809L14.9289 11.6742L20.9691 5.63383L21.211 5.39195L21.3419 5.5225L19.4128 16.251M19.4128 16.251L3.251 7.95336M20.8769 5.2804L20.7462 5.14965L17.6794 2.08283L17.5486 1.95206L17.4182 2.08247L15.5001 4.00051L15.3693 4.13127L15.5 4.26195L15.5001 4.26207L17.0332 5.79513C17.0023 5.76436 16.9611 5.74914 16.9221 5.74914C16.8831 5.74914 16.8419 5.76433 16.811 5.79506M20.8769 5.2804L16.811 5.79506M20.8769 5.2804L20.7463 5.41104L14.7061 11.4514L14.6994 11.4582L14.5703 11.5873L14.4395 11.4586L11.3474 8.41638L11.2147 8.28575M20.8769 5.2804L11.2147 8.28575M16.811 5.79506L16.8107 5.79536L16.811 5.79506ZM3.24438 7.93219L3.24622 7.93807L3.24666 7.93949L3.251 7.95336M3.24438 7.93219L3.251 7.95336M14.3267 12.049L14.4558 11.9178L14.5715 12.0317L14.5728 12.0303L14.713 12.1652L18.9425 16.2362L19.078 16.3666L18.945 16.4996L18.9105 16.534L15.9446 19.4999L15.8785 19.566L15.7497 19.6949L15.6192 19.568L11.3935 15.4613L11.2661 15.3375L11.2662 15.3375L10.9025 14.984L7.79157 11.9605L7.52825 11.7046L7.52744 11.7038L7.49953 11.6767L7.30363 11.4839L4.24304 8.47268L4.44603 8.41301L7.657 11.5721L15.748 19.4355L18.4609 16.7227L18.4678 16.7294L18.8146 16.3691L18.461 16.0156L18.4543 16.0223L14.3267 12.049ZM14.3267 12.049L14.4543 11.9164L14.4501 11.9122L14.3458 11.8118L14.3469 11.8107L14.218 11.6838L11.126 8.6414L10.7667 8.28787L10.7668 8.28784L10.638 8.1611L7.56548 5.13809L7.50644 5.33871L14.3267 12.049ZM11.2147 8.28575L11.3422 8.15825L11.3461 8.15436L13.1037 6.39681L13.2345 6.26605L13.3651 6.39666L13.3652 6.39677L14.8985 7.93007C14.8985 7.93011 14.8985 7.93015 14.8986 7.93018L11.2147 8.28575ZM15.1466 3.90852L15.1464 3.9084L14.7929 4.26195L13.3652 5.68967L13.2344 5.82043L13.2343 5.82031L12.8807 6.17387L11.1232 7.93145L11.1193 7.93534L10.99 8.06466L10.8593 7.93612L7.45293 4.58463L7.11254 4.24973L7.12946 4.19224L7.05854 4.17008L7.05717 4.16965L7.05709 4.16963L7.0521 4.16807L7.02623 4.15998L15.1466 3.90852ZM7.01473 4.15639L7.01579 4.15453L7.01473 4.15639ZM7.01299 4.15585L6.99222 4.14936L6.99674 4.13579L7.01299 4.15585ZM6.98715 4.14777L6.9813 4.14594L6.98736 4.12656L6.98715 4.14777ZM6.97795 4.1449L6.82904 4.09836L6.97795 4.1449ZM16.0551 19.8852L16.0293 19.8613L16.1015 19.7891L16.1676 19.723L19.1336 16.7572L19.1681 16.7227L19.2725 16.6183C19.3203 16.6683 19.3654 16.72 19.4077 16.7732C20.1258 17.674 20.069 18.9932 19.2365 19.8257L19.2364 19.8258C19.2364 19.8258 19.2363 19.8259 19.2363 19.826C19.2363 19.826 19.2362 19.826 19.2362 19.826C18.8021 20.2602 18.227 20.4984 17.6126 20.4984C17.0865 20.4984 16.5897 20.3216 16.1842 19.9966C16.14 19.9612 16.097 19.9241 16.0551 19.8852ZM10.6828 15.21L10.8172 15.3406L10.6915 15.4663L10.6846 15.4732L5.41116 20.7466L5.28053 20.8773L5.14966 20.7464L2.08259 17.6791L1.95207 17.5486L2.08271 17.4179L3.37297 16.1276L3.50373 15.9969L3.63429 16.1274L3.63441 16.1275L5.1677 17.6608C5.10633 17.5993 5.10637 17.4995 5.16781 17.438C5.19875 17.4071 5.24006 17.3918 5.27916 17.3918C5.31825 17.3918 5.35956 17.4071 5.3905 17.438L3.8572 15.9047L3.85709 15.9046L3.72652 15.7741L3.85727 15.6433L5.11374 14.3868L5.2445 14.256L5.37521 14.3867L5.37533 14.3868L6.90862 15.9201C6.84725 15.8586 6.84729 15.7588 6.90874 15.6973C6.93967 15.6664 6.98098 15.6511 7.02008 15.6511C7.05918 15.6511 7.10049 15.6664 7.13142 15.6973L5.59812 14.1641L5.59801 14.1639L5.46729 14.0332L5.59804 13.9025L7.30652 12.1939L7.31222 12.1882L7.441 12.0594L7.57185 12.1866L10.6828 15.21ZM1.84063 17.66L1.84079 17.6599C1.84073 17.6599 1.84068 17.66 1.84062 17.66L1.72917 17.5486L1.84063 17.66ZM4.03818 8.01175L4.14546 8.37668L4.03818 8.01175ZM4.5871 7.85038L4.85203 7.7725L4.5871 7.85038ZM6.82675 5.22108L6.92453 4.88874L6.99067 4.66395L7.01153 4.59305L7.2316 4.80959L7.47741 5.05144L7.10226 4.94105L6.82675 5.22108ZM14.8989 7.70697L14.8986 7.70727L14.8989 7.70697ZM13.4572 6.04326L13.588 5.9125L15.0157 4.48481L15.1465 4.35406L15.2772 4.48475L15.2773 4.48486L16.8106 6.01816C16.8106 6.0182 16.8107 6.01823 16.8107 6.01827L13.4572 6.04326ZM17.6601 1.84061C17.66 1.84069 17.6599 1.84078 17.6598 1.84087L17.66 1.84061L17.5486 1.72916L17.6601 1.84061ZM21.0996 5.28017L21.2111 5.16873L21.0996 5.28017Z" fill="#FCFDFF" stroke="#FCFDFF"/>
</svg>
