<svg width="23" height="23" viewBox="0 0 23 23" fill="none" xmlns="http://www.w3.org/2000/svg">
<path d="M2.15625 8.5625H20.8437" stroke="#0D0D0D" stroke-miterlimit="10" stroke-linecap="round" stroke-linejoin="round"/>
<path d="M5.03125 7.1875C4.81563 7.1875 4.67188 7.11875 4.52813 6.98125C4.38438 6.84375 4.3125 6.70625 4.3125 6.5C4.3125 6.29375 4.38438 6.15625 4.52813 6.01875L4.6 5.95C4.67188 5.95 4.67187 5.88125 4.74375 5.88125C4.81562 5.8125 4.81563 5.8125 4.8875 5.8125C4.95938 5.8125 5.10312 5.8125 5.175 5.8125C5.24687 5.8125 5.24688 5.8125 5.31875 5.88125C5.39063 5.88125 5.39062 5.95 5.4625 5.95L5.53437 6.01875C5.60625 6.0875 5.67813 6.15625 5.67813 6.225C5.75 6.29375 5.75 6.43125 5.75 6.5C5.75 6.56875 5.75 6.70625 5.67813 6.775C5.67813 6.84375 5.60625 6.9125 5.53437 6.98125C5.39062 7.11875 5.24687 7.1875 5.03125 7.1875Z" fill="#0D0D0D"/>
<path d="M7.1875 7.1876C6.97188 7.1876 6.82813 7.11885 6.68438 6.98135C6.54063 6.84385 6.46875 6.70635 6.46875 6.5001C6.46875 6.43135 6.46875 6.29385 6.54063 6.2251C6.6125 6.15635 6.6125 6.0876 6.68438 6.01885C6.75625 5.9501 6.82813 5.88135 6.9 5.88135C7.1875 5.74385 7.475 5.8126 7.69062 6.01885C7.7625 6.0876 7.83437 6.15635 7.83437 6.2251C7.90625 6.29385 7.90625 6.43135 7.90625 6.5001C7.90625 6.70635 7.83437 6.84385 7.69062 6.98135C7.54687 7.11885 7.40312 7.1876 7.1875 7.1876Z" fill="#0D0D0D"/>
<path d="M9.34375 7.1875C9.27188 7.1875 9.12813 7.1875 9.05625 7.11875C8.98438 7.05 8.9125 7.05 8.84063 6.98125C8.76875 6.9125 8.69688 6.84375 8.69688 6.775C8.625 6.70625 8.625 6.56875 8.625 6.5C8.625 6.43125 8.625 6.29375 8.69688 6.225C8.76875 6.15625 8.76875 6.0875 8.84063 6.01875C9.12813 5.74375 9.55937 5.74375 9.84687 6.01875C9.91875 6.0875 9.99062 6.15625 9.99062 6.225C10.0625 6.29375 10.0625 6.43125 10.0625 6.5C10.0625 6.56875 10.0625 6.70625 9.99062 6.775C9.91875 6.84375 9.91875 6.9125 9.84687 6.98125C9.70312 7.11875 9.55937 7.1875 9.34375 7.1875Z" fill="#0D0D0D"/>
<path d="M19.4062 4.4375H3.59375C2.80312 4.4375 2.15625 5.05625 2.15625 5.8125V18.1875C2.15625 18.9438 2.80312 19.5625 3.59375 19.5625H19.4062C20.1969 19.5625 20.8437 18.9438 20.8437 18.1875V5.8125C20.8437 5.05625 20.1969 4.4375 19.4062 4.4375Z" stroke="#0D0D0D" stroke-miterlimit="10" stroke-linecap="round" stroke-linejoin="round"/>
<path d="M7.90625 12L5.75 14.0625L7.90625 16.125" stroke="#0D0D0D" stroke-miterlimit="10" stroke-linecap="round" stroke-linejoin="round"/>
<path d="M15.0938 12L17.25 14.0625L15.0938 16.125" stroke="#0D0D0D" stroke-miterlimit="10" stroke-linecap="round" stroke-linejoin="round"/>
<path d="M12.9375 11.3125L10.0625 16.8125" stroke="#0D0D0D" stroke-miterlimit="10" stroke-linecap="round" stroke-linejoin="round"/>
</svg>
