<svg width="22" height="19" viewBox="0 0 22 19" fill="none" xmlns="http://www.w3.org/2000/svg">
<mask id="path-1-inside-1_842_1025" fill="white">
<path fill-rule="evenodd" clip-rule="evenodd" d="M8.25 12.621V14.4762H20.1644C20.6719 14.4762 21.0833 14.07 21.0833 13.5647V1.8163C21.0833 1.31287 20.6805 0.904762 20.1644 0.904762H1.83559C1.32808 0.904762 0.916667 1.31093 0.916667 1.8163V13.5647C0.916667 14.0681 1.3195 14.4762 1.83559 14.4762H3.66667V12.621C3.09962 12.0498 2.75 11.2676 2.75 10.4048C2.75 8.65586 4.18642 7.2381 5.95833 7.2381C7.73025 7.2381 9.16667 8.65586 9.16667 10.4048C9.16667 11.2676 8.81704 12.0498 8.25 12.621ZM4.58333 13.2667V16.8286L5.95833 15.4714L7.33333 16.8286V13.2667C6.91659 13.4621 6.4504 13.5714 5.95833 13.5714C5.46627 13.5714 5.00008 13.4621 4.58333 13.2667ZM3.66667 15.381H1.83787C0.822274 15.381 0 14.5708 0 13.5713V1.80962C0 0.805291 0.822842 0 1.83787 0H20.1621C21.1777 0 22 0.810194 22 1.80962V13.5713C22 14.5757 21.1772 15.381 20.1621 15.381H8.25V19L5.95833 16.7381L3.66667 19V15.381ZM2.75 4.52381V5.42857H19.25V4.52381H2.75ZM11 7.2381V8.14286H19.25V7.2381H11ZM13.75 9.95238V10.8571H19.25V9.95238H13.75ZM5.95833 12.6667C7.22399 12.6667 8.25 11.654 8.25 10.4048C8.25 9.15555 7.22399 8.14286 5.95833 8.14286C4.69268 8.14286 3.66667 9.15555 3.66667 10.4048C3.66667 11.654 4.69268 12.6667 5.95833 12.6667Z"/>
</mask>
<path fill-rule="evenodd" clip-rule="evenodd" d="M8.25 12.621V14.4762H20.1644C20.6719 14.4762 21.0833 14.07 21.0833 13.5647V1.8163C21.0833 1.31287 20.6805 0.904762 20.1644 0.904762H1.83559C1.32808 0.904762 0.916667 1.31093 0.916667 1.8163V13.5647C0.916667 14.0681 1.3195 14.4762 1.83559 14.4762H3.66667V12.621C3.09962 12.0498 2.75 11.2676 2.75 10.4048C2.75 8.65586 4.18642 7.2381 5.95833 7.2381C7.73025 7.2381 9.16667 8.65586 9.16667 10.4048C9.16667 11.2676 8.81704 12.0498 8.25 12.621ZM4.58333 13.2667V16.8286L5.95833 15.4714L7.33333 16.8286V13.2667C6.91659 13.4621 6.4504 13.5714 5.95833 13.5714C5.46627 13.5714 5.00008 13.4621 4.58333 13.2667ZM3.66667 15.381H1.83787C0.822274 15.381 0 14.5708 0 13.5713V1.80962C0 0.805291 0.822842 0 1.83787 0H20.1621C21.1777 0 22 0.810194 22 1.80962V13.5713C22 14.5757 21.1772 15.381 20.1621 15.381H8.25V19L5.95833 16.7381L3.66667 19V15.381ZM2.75 4.52381V5.42857H19.25V4.52381H2.75ZM11 7.2381V8.14286H19.25V7.2381H11ZM13.75 9.95238V10.8571H19.25V9.95238H13.75ZM5.95833 12.6667C7.22399 12.6667 8.25 11.654 8.25 10.4048C8.25 9.15555 7.22399 8.14286 5.95833 8.14286C4.69268 8.14286 3.66667 9.15555 3.66667 10.4048C3.66667 11.654 4.69268 12.6667 5.95833 12.6667Z" fill="#0D0D0D"/>
<path d="M8.25 12.621L7.54035 11.9164L7.25 12.2089V12.621H8.25ZM8.25 14.4762H7.25V15.4762H8.25V14.4762ZM3.66667 14.4762V15.4762H4.66667V14.4762H3.66667ZM3.66667 12.621H4.66667V12.2089L4.37632 11.9164L3.66667 12.621ZM4.58333 13.2667L5.00786 12.3613L3.58333 11.6933V13.2667H4.58333ZM4.58333 16.8286H3.58333V19.2206L5.2858 17.5403L4.58333 16.8286ZM5.95833 15.4714L6.6608 14.7597L5.95833 14.0664L5.25587 14.7597L5.95833 15.4714ZM7.33333 16.8286L6.63087 17.5403L8.33333 19.2206V16.8286H7.33333ZM7.33333 13.2667H8.33333V11.6933L6.9088 12.3613L7.33333 13.2667ZM3.66667 15.381H4.66667V14.381H3.66667V15.381ZM8.25 15.381V14.381H7.25V15.381H8.25ZM8.25 19L7.54753 19.7117L9.25 21.3921V19H8.25ZM5.95833 16.7381L6.6608 16.0264L5.95833 15.333L5.25586 16.0264L5.95833 16.7381ZM3.66667 19H2.66667V21.3921L4.36914 19.7117L3.66667 19ZM2.75 4.52381V3.52381H1.75V4.52381H2.75ZM2.75 5.42857H1.75V6.42857H2.75V5.42857ZM19.25 5.42857V6.42857H20.25V5.42857H19.25ZM19.25 4.52381H20.25V3.52381H19.25V4.52381ZM11 7.2381V6.2381H10V7.2381H11ZM11 8.14286H10V9.14286H11V8.14286ZM19.25 8.14286V9.14286H20.25V8.14286H19.25ZM19.25 7.2381H20.25V6.2381H19.25V7.2381ZM13.75 9.95238V8.95238H12.75V9.95238H13.75ZM13.75 10.8571H12.75V11.8571H13.75V10.8571ZM19.25 10.8571V11.8571H20.25V10.8571H19.25ZM19.25 9.95238H20.25V8.95238H19.25V9.95238ZM7.25 12.621V14.4762H9.25V12.621H7.25ZM8.25 15.4762H20.1644V13.4762H8.25V15.4762ZM20.1644 15.4762C21.2152 15.4762 22.0833 14.6313 22.0833 13.5647H20.0833C20.0833 13.5088 20.1287 13.4762 20.1644 13.4762V15.4762ZM22.0833 13.5647V1.8163H20.0833V13.5647H22.0833ZM22.0833 1.8163C22.0833 0.759072 21.2313 -0.0952381 20.1644 -0.0952381V1.90476C20.1523 1.90476 20.1294 1.89791 20.1109 1.87942C20.0931 1.86165 20.0833 1.83688 20.0833 1.8163H22.0833ZM20.1644 -0.0952381H1.83559V1.90476H20.1644V-0.0952381ZM1.83559 -0.0952381C0.784819 -0.0952381 -0.0833333 0.749665 -0.0833333 1.8163H1.91667C1.91667 1.87219 1.87135 1.90476 1.83559 1.90476V-0.0952381ZM-0.0833333 1.8163V13.5647H1.91667V1.8163H-0.0833333ZM-0.0833333 13.5647C-0.0833333 14.6219 0.768732 15.4762 1.83559 15.4762V13.4762C1.84774 13.4762 1.87062 13.483 1.88914 13.5015C1.90693 13.5193 1.91667 13.5441 1.91667 13.5647H-0.0833333ZM1.83559 15.4762H3.66667V13.4762H1.83559V15.4762ZM4.66667 14.4762V12.621H2.66667V14.4762H4.66667ZM4.37632 11.9164C3.98632 11.5236 3.75 10.9912 3.75 10.4048H1.75C1.75 11.544 2.21292 12.576 2.95702 13.3255L4.37632 11.9164ZM3.75 10.4048C3.75 9.22043 4.72634 8.2381 5.95833 8.2381V6.2381C3.6465 6.2381 1.75 8.09129 1.75 10.4048H3.75ZM5.95833 8.2381C7.19033 8.2381 8.16667 9.22043 8.16667 10.4048H10.1667C10.1667 8.09129 8.27017 6.2381 5.95833 6.2381V8.2381ZM8.16667 10.4048C8.16667 10.9912 7.93035 11.5236 7.54035 11.9164L8.95965 13.3255C9.70374 12.576 10.1667 11.544 10.1667 10.4048H8.16667ZM3.58333 13.2667V16.8286H5.58333V13.2667H3.58333ZM5.2858 17.5403L6.6608 16.1832L5.25587 14.7597L3.88087 16.1168L5.2858 17.5403ZM5.25587 16.1832L6.63087 17.5403L8.0358 16.1168L6.6608 14.7597L5.25587 16.1832ZM8.33333 16.8286V13.2667H6.33333V16.8286H8.33333ZM6.9088 12.3613C6.62244 12.4955 6.30095 12.5714 5.95833 12.5714V14.5714C6.59984 14.5714 7.21074 14.4286 7.75786 14.1721L6.9088 12.3613ZM5.95833 12.5714C5.61571 12.5714 5.29422 12.4955 5.00786 12.3613L4.1588 14.1721C4.70593 14.4286 5.31682 14.5714 5.95833 14.5714V12.5714ZM3.66667 14.381H1.83787V16.381H3.66667V14.381ZM1.83787 14.381C1.3601 14.381 1 14.0041 1 13.5713H-1C-1 15.1374 0.284445 16.381 1.83787 16.381V14.381ZM1 13.5713V1.80962H-1V13.5713H1ZM1 1.80962C1 1.37387 1.35869 1 1.83787 1V-1C0.286997 -1 -1 0.236708 -1 1.80962H1ZM1.83787 1H20.1621V-1H1.83787V1ZM20.1621 1C20.6399 1 21 1.37682 21 1.80962H23C23 0.243564 21.7156 -1 20.1621 -1V1ZM21 1.80962V13.5713H23V1.80962H21ZM21 13.5713C21 14.0071 20.6413 14.381 20.1621 14.381V16.381C21.713 16.381 23 15.1442 23 13.5713H21ZM20.1621 14.381H8.25V16.381H20.1621V14.381ZM7.25 15.381V19H9.25V15.381H7.25ZM8.95247 18.2883L6.6608 16.0264L5.25586 17.4498L7.54753 19.7117L8.95247 18.2883ZM5.25586 16.0264L2.9642 18.2883L4.36914 19.7117L6.6608 17.4498L5.25586 16.0264ZM4.66667 19V15.381H2.66667V19H4.66667ZM1.75 4.52381V5.42857H3.75V4.52381H1.75ZM2.75 6.42857H19.25V4.42857H2.75V6.42857ZM20.25 5.42857V4.52381H18.25V5.42857H20.25ZM19.25 3.52381H2.75V5.52381H19.25V3.52381ZM10 7.2381V8.14286H12V7.2381H10ZM11 9.14286H19.25V7.14286H11V9.14286ZM20.25 8.14286V7.2381H18.25V8.14286H20.25ZM19.25 6.2381H11V8.2381H19.25V6.2381ZM12.75 9.95238V10.8571H14.75V9.95238H12.75ZM13.75 11.8571H19.25V9.85714H13.75V11.8571ZM20.25 10.8571V9.95238H18.25V10.8571H20.25ZM19.25 8.95238H13.75V10.9524H19.25V8.95238ZM5.95833 13.6667C7.76391 13.6667 9.25 12.2185 9.25 10.4048H7.25C7.25 11.0894 6.68407 11.6667 5.95833 11.6667V13.6667ZM9.25 10.4048C9.25 8.59098 7.76391 7.14286 5.95833 7.14286V9.14286C6.68407 9.14286 7.25 9.72011 7.25 10.4048H9.25ZM5.95833 7.14286C4.15276 7.14286 2.66667 8.59098 2.66667 10.4048H4.66667C4.66667 9.72012 5.2326 9.14286 5.95833 9.14286V7.14286ZM2.66667 10.4048C2.66667 12.2185 4.15276 13.6667 5.95833 13.6667V11.6667C5.2326 11.6667 4.66667 11.0894 4.66667 10.4048H2.66667Z" fill="#0D0D0D" mask="url(#path-1-inside-1_842_1025)"/>
</svg>
