<svg width="21" height="20" viewBox="0 0 21 20" fill="none" xmlns="http://www.w3.org/2000/svg">
<g clip-path="url(#clip0_831_265)">
<path d="M19.4498 0H1.55021C1.13907 0 0.744766 0.155548 0.454046 0.432425C0.163325 0.709301 0 1.08483 0 1.47639V18.5236C0 18.9152 0.163325 19.2907 0.454046 19.5676C0.744766 19.8445 1.13907 20 1.55021 20H19.4498C19.8609 20 20.2552 19.8445 20.546 19.5676C20.8367 19.2907 21 18.9152 21 18.5236V1.47639C21 1.08483 20.8367 0.709301 20.546 0.432425C20.2552 0.155548 19.8609 0 19.4498 0ZM6.25917 17.0375H3.10188V7.48611H6.25917V17.0375ZM4.67833 6.1625C4.32019 6.16058 3.97068 6.05766 3.67389 5.86674C3.37711 5.67582 3.14636 5.40544 3.01077 5.08974C2.87518 4.77404 2.84082 4.42716 2.91203 4.09288C2.98324 3.7586 3.15683 3.4519 3.41089 3.21148C3.66494 2.97107 3.98809 2.80772 4.33953 2.74205C4.69098 2.67638 5.05497 2.71133 5.38558 2.84249C5.71619 2.97365 5.9986 3.19514 6.19716 3.47901C6.39572 3.76288 6.50153 4.09641 6.50125 4.4375C6.50463 4.66586 6.4597 4.89253 6.36914 5.104C6.27857 5.31547 6.14423 5.50742 5.97412 5.66839C5.80402 5.82936 5.60162 5.95607 5.379 6.04096C5.15637 6.12585 4.91809 6.16718 4.67833 6.1625ZM17.8967 17.0458H14.7408V11.8278C14.7408 10.2889 14.054 9.81389 13.1673 9.81389C12.231 9.81389 11.3123 10.4861 11.3123 11.8667V17.0458H8.155V7.49306H11.1913V8.81667H11.2321C11.5369 8.22917 12.6044 7.225 14.2333 7.225C15.995 7.225 17.8981 8.22083 17.8981 11.1375L17.8967 17.0458Z" fill="#0D0D0D"/>
</g>
<defs>
<clipPath id="clip0_831_265">
<rect width="21" height="20" fill="white"/>
</clipPath>
</defs>
</svg>
