<svg width="23" height="18" viewBox="0 0 23 18" fill="none" xmlns="http://www.w3.org/2000/svg">
<path fill-rule="evenodd" clip-rule="evenodd" d="M20.25 0H2.25C1.0125 0 0.01125 1.0125 0.01125 2.25L0 15.75C0 16.9875 1.0125 18 2.25 18H20.25C21.4875 18 22.5 16.9875 22.5 15.75V2.25C22.5 1.0125 21.4875 0 20.25 0ZM20.75 15.2C20.75 15.915 20.2156 16.5 19.5625 16.5H2.9375C2.28437 16.5 1.75 15.915 1.75 15.2V3L10.25 9C11.0219 9.533 11.4781 9.533 12.25 9L20.75 3V15.2ZM1.75 1.5L11.25 7.5L20.75 1.5H1.75Z" fill="#0D0D0D"/>
</svg>
